<?xml version="1.0" encoding="UTF-8"?>
<!DOCTYPE svg PUBLIC "-//W3C//DTD SVG 1.1//EN" "http://www.w3.org/Graphics/SVG/1.1/DTD/svg11.dtd">
<svg xmlns="http://www.w3.org/2000/svg" version="1.1" width="1063px" height="1004px" style="shape-rendering:geometricPrecision; text-rendering:geometricPrecision; image-rendering:optimizeQuality; fill-rule:evenodd; clip-rule:evenodd" xmlns:xlink="http://www.w3.org/1999/xlink">
<g><path style="opacity:1" fill="#fbeda3" d="M 806.5,632.5 C 807.449,633.152 808.615,633.486 810,633.5C 811.681,633.392 812.848,632.725 813.5,631.5C 823.013,616.486 833.513,602.153 845,588.5C 868.003,561.999 891.17,535.665 914.5,509.5C 915.492,509.328 916.158,509.662 916.5,510.5C 885.747,560.838 859.08,613.338 836.5,668C 625.833,668.667 415.167,668.667 204.5,668C 180.796,610.755 152.796,555.921 120.5,503.5C 151.548,537.382 181.714,572.049 211,607.5C 217.086,615.088 222.586,623.088 227.5,631.5C 229.765,632.647 232.098,632.814 234.5,632C 250.667,615.167 266.833,598.333 283,581.5C 283.667,580.5 283.667,579.5 283,578.5C 235.733,516.608 189.4,454.275 144,391.5C 186.61,421.426 225.61,455.759 261,494.5C 277.717,513.711 294.217,533.045 310.5,552.5C 341.909,520.759 373.242,489.092 404.5,457.5C 408.5,455.5 411.5,452.5 413.5,448.5C 419.605,442.897 425.605,437.064 431.5,431C 419.179,420.183 406.179,410.35 392.5,401.5C 435.192,345.976 477.692,290.309 520,234.5C 563.025,290.024 605.858,345.691 648.5,401.5C 634.821,410.35 621.821,420.183 609.5,431C 649.824,471.158 690.157,511.658 730.5,552.5C 759.106,517.048 789.772,483.215 822.5,451C 845.891,429.266 870.724,409.433 897,391.5C 851.458,454.171 805.125,516.505 758,578.5C 757.333,579.5 757.333,580.5 758,581.5C 774.399,598.396 790.565,615.396 806.5,632.5 Z M 582.5,405.5 C 562.756,385.087 542.09,365.753 520.5,347.5C 516.382,350.444 512.382,353.611 508.5,357C 491.635,373.533 474.469,389.699 457,405.5C 451.894,402.028 447.06,398.194 442.5,394C 468.309,360.024 494.309,326.191 520.5,292.5C 546.691,326.191 572.691,360.024 598.5,394C 594.5,397.333 590.5,400.667 586.5,404C 585.255,404.791 583.922,405.291 582.5,405.5 Z M 519.5,394.5 C 532.575,405.402 545.242,416.902 557.5,429C 545.015,440.651 532.682,452.485 520.5,464.5C 508.318,452.485 495.985,440.651 483.5,429C 495.699,417.633 507.699,406.133 519.5,394.5 Z M 333.5,579.5 C 336.219,577.781 338.219,575.447 339.5,572.5C 377.167,534.167 415.167,496.167 453.5,458.5C 454.833,457.833 455.833,456.833 456.5,455.5C 457.423,454.697 458.423,454.53 459.5,455C 471.638,466.137 483.471,477.637 495,489.5C 495.667,490.5 495.667,491.5 495,492.5C 453.578,537.242 414.412,583.742 377.5,632C 373.909,632.789 370.409,632.622 367,631.5C 355.747,614.659 344.247,597.993 332.5,581.5C 332.863,580.817 333.196,580.15 333.5,579.5 Z M 588.5,459.5 C 590.833,462.5 593.5,465.167 596.5,467.5C 615.132,485.632 633.632,503.965 652,522.5C 671.016,542.015 689.849,561.682 708.5,581.5C 696.833,598.167 685.167,614.833 673.5,631.5C 670.216,632.657 666.882,632.824 663.5,632C 626.588,583.742 587.422,537.242 546,492.5C 545.333,491.5 545.333,490.5 546,489.5C 557.734,476.749 570.234,465.249 583.5,455C 585.037,456.707 586.704,458.207 588.5,459.5 Z M 519.5,517.5 C 523.402,519.893 526.902,522.893 530,526.5C 560.628,560.789 590.128,595.955 618.5,632C 553.167,632.667 487.833,632.667 422.5,632C 453.167,592.493 485.5,554.327 519.5,517.5 Z M 322.5,631.5 C 309.677,632.495 296.677,632.829 283.5,632.5C 290.11,624.221 297.444,616.555 305.5,609.5C 311.164,616.825 316.831,624.158 322.5,631.5 Z M 757.5,632.5 C 744.323,632.829 731.323,632.495 718.5,631.5C 724.169,624.158 729.836,616.825 735.5,609.5C 743.523,616.582 750.857,624.249 757.5,632.5 Z"/></g>
<g><path style="opacity:1" fill="#fbeda3" d="M 296.5,313.5 C 316.191,346.374 340.525,375.541 369.5,401C 340.452,426.653 316.285,456.153 297,489.5C 277.464,456.454 253.298,427.12 224.5,401.5C 253.404,375.954 277.404,346.621 296.5,313.5 Z M 296.5,376.5 C 303.782,384.788 311.115,393.121 318.5,401.5C 311.146,409.686 303.98,418.019 297,426.5C 290.02,418.019 282.854,409.686 275.5,401.5C 282.899,393.44 289.899,385.107 296.5,376.5 Z"/></g>
<g><path style="opacity:1" fill="#fbeda3" d="M 747.5,314.5 C 748.496,314.414 749.329,314.748 750,315.5C 768.834,347.849 792.334,376.516 820.5,401.5C 806.145,414.688 792.645,428.688 780,443.5C 768.995,458.188 758.495,473.188 748.5,488.5C 728.998,455.978 704.998,426.978 676.5,401.5C 705.049,376.304 728.716,347.304 747.5,314.5 Z M 747.5,376.5 C 755.3,384.14 762.634,392.306 769.5,401C 769.138,402.225 768.638,403.391 768,404.5C 761.293,411.538 754.96,418.872 749,426.5C 741.833,418.167 734.667,409.833 727.5,401.5C 734.904,393.653 741.571,385.32 747.5,376.5 Z"/></g>
<g><path style="opacity:1" fill="#d4b536" d="M 469.5,395.5 C 474.029,405.587 477.862,415.921 481,426.5C 473.406,419.951 465.906,413.284 458.5,406.5C 462.494,403.173 466.161,399.506 469.5,395.5 Z"/></g>
<g><path style="opacity:1" fill="#d4b537" d="M 582.5,405.5 C 575.244,412.584 567.744,419.584 560,426.5C 562.851,415.953 566.517,405.619 571,395.5C 574.429,399.439 578.263,402.772 582.5,405.5 Z"/></g>
<g><path style="opacity:1" fill="#d3b538" d="M 456.5,455.5 C 455.833,456.833 454.833,457.833 453.5,458.5C 453.103,457.475 452.437,457.308 451.5,458C 449,460.5 446.5,463 444,465.5C 439.898,454.526 436.231,443.526 433,432.5C 439.539,438.708 446.373,444.541 453.5,450C 455.607,451.264 456.607,453.097 456.5,455.5 Z"/></g>
<g><path style="opacity:1" fill="#d4b637" d="M 597.5,464.5 C 594.755,462.432 591.755,460.766 588.5,459.5C 586.994,457.211 585.827,454.877 585,452.5C 592.371,445.46 600.038,438.794 608,432.5C 604.83,443.179 601.33,453.845 597.5,464.5 Z"/></g>
<g><path style="opacity:1" fill="#c9be81" d="M 413.5,448.5 C 411.5,452.5 408.5,455.5 404.5,457.5C 407.167,454.167 410.167,451.167 413.5,448.5 Z"/></g>
<g><path style="opacity:1" fill="#c9bb75" d="M 588.5,459.5 C 591.755,460.766 594.755,462.432 597.5,464.5C 596.89,465.391 596.557,466.391 596.5,467.5C 593.5,465.167 590.833,462.5 588.5,459.5 Z"/></g>
<g><path style="opacity:1" fill="#9c9464" d="M 119.5,502.5 C 118.833,501.167 118.833,501.167 119.5,502.5 Z"/></g>
<g><path style="opacity:1" fill="#47452e" d="M 921.5,501.5 C 922.833,502.167 922.833,502.167 921.5,501.5 Z"/></g>
<g><path style="opacity:1" fill="#e8dc96" d="M 119.5,502.5 C 120.167,502.5 120.5,502.833 120.5,503.5C 120.167,503.167 119.833,502.833 119.5,502.5 Z"/></g>
<g><path style="opacity:1" fill="#ccc283" d="M 921.5,502.5 C 920.833,503.167 920.833,503.167 921.5,502.5 Z"/></g>
<g><path style="opacity:1" fill="#bfb57c" d="M 920.5,503.5 C 919.921,506.331 918.588,508.664 916.5,510.5C 916.158,509.662 915.492,509.328 914.5,509.5C 916.167,507.167 918.167,505.167 920.5,503.5 Z"/></g>
<g><path style="opacity:1" fill="#d4b537" d="M 726.5,555.5 C 727.239,555.369 727.906,555.536 728.5,556C 722.118,563.38 716.118,571.047 710.5,579C 706.361,577.21 703.028,574.21 700.5,570C 709.039,564.898 717.706,560.065 726.5,555.5 Z"/></g>
<g><path style="opacity:1" fill="#d3b53b" d="M 339.5,572.5 C 338.219,575.447 336.219,577.781 333.5,579.5C 331.61,579.703 330.11,579.037 329,577.5C 323.883,570.048 318.383,562.882 312.5,556C 321.627,559.559 330.627,563.725 339.5,568.5C 340.292,569.7 340.292,571.033 339.5,572.5 Z"/></g>
<g><path style="opacity:1" fill="#d4b536" d="M 283.5,582.5 C 285.017,582.511 286.184,583.177 287,584.5C 291.615,591.45 296.615,598.116 302,604.5C 302.667,605.167 302.667,605.833 302,606.5C 292.754,601.794 283.588,596.961 274.5,592C 277.704,588.964 280.704,585.797 283.5,582.5 Z"/></g>
<g><path style="opacity:1" fill="#d4b638" d="M 755.5,581.5 C 759.298,584.796 762.964,588.296 766.5,592C 757.412,596.961 748.246,601.794 739,606.5C 738.333,605.833 738.333,605.167 739,604.5C 744.744,596.936 750.244,589.27 755.5,581.5 Z"/></g>
<g><path style="opacity:1" fill="#6d6846" d="M 322.5,631.5 C 323.043,631.56 323.376,631.893 323.5,632.5C 316.667,632.833 309.833,633.167 303,633.5C 295.754,633.519 289.254,633.185 283.5,632.5C 296.677,632.829 309.677,632.495 322.5,631.5 Z"/></g>
<g><path style="opacity:1" fill="#6c6746" d="M 718.5,631.5 C 731.323,632.495 744.323,632.829 757.5,632.5C 751.746,633.185 745.246,633.519 738,633.5C 731.167,633.167 724.333,632.833 717.5,632.5C 717.624,631.893 717.957,631.56 718.5,631.5 Z"/></g>
<g><path style="opacity:1" fill="#7b7550" d="M 813.5,631.5 C 812.848,632.725 811.681,633.392 810,633.5C 808.615,633.486 807.449,633.152 806.5,632.5C 808.95,632.702 811.283,632.369 813.5,631.5 Z"/></g>
<g><path style="opacity:1" fill="#aeab79" d="M 608.5,741.5 C 609.833,742.167 609.833,742.167 608.5,741.5 Z"/></g>
<g><path style="opacity:1" fill="#f9f2ae" d="M 608.5,742.5 C 594.068,776.703 579.068,810.703 563.5,844.5C 564.485,846.098 564.651,847.765 564,849.5C 559.652,852.511 556.485,856.511 554.5,861.5C 552.833,861.833 551.167,862.167 549.5,862.5C 547.359,862.387 545.525,861.72 544,860.5C 537.059,839.179 530.226,817.846 523.5,796.5C 521.609,787.831 518.943,779.498 515.5,771.5C 513.263,765.971 511.097,760.305 509,754.5C 506.193,751.442 502.693,749.775 498.5,749.5C 505.163,748.641 511.829,747.808 518.5,747C 523.205,746.323 527.372,744.49 531,741.5C 540.383,773.034 550.383,804.367 561,835.5C 569.275,817.284 577.275,798.95 585,780.5C 585.593,769.515 582.093,760.015 574.5,752C 586.297,750.385 597.63,747.218 608.5,742.5 Z"/></g>
<g><path style="opacity:1" fill="#f7f0ad" d="M 414.5,788.5 C 420.167,788.5 425.833,788.5 431.5,788.5C 431.828,777.321 431.495,766.321 430.5,755.5C 430.489,753.983 429.823,752.816 428.5,752C 425.182,751.121 421.848,750.287 418.5,749.5C 426.181,748.764 433.848,747.931 441.5,747C 446.107,746.266 450.441,744.766 454.5,742.5C 454.833,743.167 455.167,743.833 455.5,744.5C 454.346,781.811 454.179,819.144 455,856.5C 458.511,859.681 462.678,861.514 467.5,862C 451.167,862.667 434.833,862.667 418.5,862C 421.044,860.908 423.711,860.241 426.5,860C 427.931,859.535 429.097,858.701 430,857.5C 430.667,837.833 430.667,818.167 430,798.5C 428.496,801.509 426.996,804.509 425.5,807.5C 415.781,804.707 406.114,804.873 396.5,808C 393.705,809.793 391.205,811.96 389,814.5C 388.333,828.833 388.333,843.167 389,857.5C 389.903,858.701 391.069,859.535 392.5,860C 395.289,860.241 397.956,860.908 400.5,862C 384.167,862.667 367.833,862.667 351.5,862C 354.101,861.08 356.768,860.413 359.5,860C 361.492,859.426 362.992,858.259 364,856.5C 364.667,822.5 364.667,788.5 364,754.5C 362.786,752.951 361.286,751.785 359.5,751C 356.629,750.882 353.962,750.216 351.5,749C 359.536,748.723 367.536,748.057 375.5,747C 380.442,746.134 384.942,744.3 389,741.5C 388.367,763.446 388.367,785.446 389,807.5C 392.754,801.742 397.254,796.575 402.5,792C 406.187,789.715 410.187,788.548 414.5,788.5 Z"/></g>
<g><path style="opacity:1" fill="#faf3af" d="M 635.5,854.5 C 636.5,854.5 637.5,854.5 638.5,854.5C 646.86,863.005 654.027,862.005 660,851.5C 661.073,847.916 661.74,844.25 662,840.5C 662.667,812.5 662.667,784.5 662,756.5C 661.727,754.671 660.893,753.171 659.5,752C 656.182,751.121 652.848,750.287 649.5,749.5C 657.173,748.708 664.839,747.875 672.5,747C 677.039,745.934 681.206,744.101 685,741.5C 684.057,777.125 683.057,812.791 682,848.5C 677.668,857.486 670.501,862.653 660.5,864C 649.53,866.595 640.197,863.928 632.5,856C 633.527,855.487 634.527,854.987 635.5,854.5 Z"/></g>
<g><path style="opacity:1" fill="#716d4f" d="M 430.5,755.5 C 431.495,766.321 431.828,777.321 431.5,788.5C 425.833,788.5 420.167,788.5 414.5,788.5C 419.64,787.512 424.974,787.179 430.5,787.5C 430.5,776.833 430.5,766.167 430.5,755.5 Z"/></g>
<g><path style="opacity:1" fill="#ccc68f" d="M 515.5,771.5 C 518.943,779.498 521.609,787.831 523.5,796.5C 520.057,788.502 517.391,780.169 515.5,771.5 Z"/></g>
<g><path style="opacity:1" fill="#928e67" d="M 638.5,854.5 C 637.5,854.5 636.5,854.5 635.5,854.5C 636.5,851.833 637.5,851.833 638.5,854.5 Z"/></g>
</svg>
